<svg width="1200" height="800" viewBox="0 0 1200 800" fill="none" xmlns="http://www.w3.org/2000/svg">
  <rect width="1200" height="800" rx="48" fill="url(#bg)"/>
  <circle cx="220" cy="190" r="118" fill="url(#glow1)" opacity="0.45"/>
  <circle cx="1020" cy="640" r="170" fill="url(#glow2)" opacity="0.32"/>
  <path d="M188 604C336 472 452 438 606 438C758 438 882 494 1014 604" stroke="#5E2B83" stroke-width="20" stroke-linecap="round"/>
  <path d="M240 586C356 498 462 470 606 470C748 470 856 522 964 586" stroke="#69B6D4" stroke-width="12" stroke-linecap="round"/>
  <rect x="318" y="270" width="176" height="198" rx="24" fill="#ffffff" opacity="0.93"/>
  <rect x="706" y="270" width="176" height="198" rx="24" fill="#ffffff" opacity="0.93"/>
  <path d="M406 394L486 394" stroke="#5E2B83" stroke-width="12" stroke-linecap="round"/>
  <path d="M792 394L712 394" stroke="#5E2B83" stroke-width="12" stroke-linecap="round"/>
  <circle cx="600" cy="358" r="70" fill="#F6AF3A"/>
  <path d="M562 446H638" stroke="#5E2B83" stroke-width="14" stroke-linecap="round"/>
  <defs>
    <linearGradient id="bg" x1="118" y1="50" x2="1044" y2="748" gradientUnits="userSpaceOnUse">
      <stop stop-color="#EEF8FF"/>
      <stop offset="0.56" stop-color="#F6F0FC"/>
      <stop offset="1" stop-color="#E9F6FF"/>
    </linearGradient>
    <radialGradient id="glow1" cx="0" cy="0" r="1" gradientUnits="userSpaceOnUse" gradientTransform="translate(220 190) rotate(90) scale(118)">
      <stop stop-color="#69B6D4"/>
      <stop offset="1" stop-color="#69B6D4" stop-opacity="0"/>
    </radialGradient>
    <radialGradient id="glow2" cx="0" cy="0" r="1" gradientUnits="userSpaceOnUse" gradientTransform="translate(1020 640) rotate(90) scale(170)">
      <stop stop-color="#5E2B83"/>
      <stop offset="1" stop-color="#5E2B83" stop-opacity="0"/>
    </radialGradient>
  </defs>
</svg>
