<svg width="1200" height="800" viewBox="0 0 1200 800" fill="none" xmlns="http://www.w3.org/2000/svg">
  <rect width="1200" height="800" rx="48" fill="url(#bg)"/>
  <path d="M124 588C288 414 446 356 606 354C760 352 908 410 1076 588" stroke="#69B6D4" stroke-width="18" stroke-linecap="round"/>
  <path d="M190 588C330 444 468 398 606 396C738 394 870 444 1006 588" stroke="#5E2B83" stroke-width="10" stroke-linecap="round"/>
  <circle cx="434" cy="304" r="74" fill="#FFFFFF" opacity="0.94"/>
  <circle cx="764" cy="304" r="74" fill="#FFFFFF" opacity="0.94"/>
  <circle cx="600" cy="230" r="92" fill="#F6AF3A"/>
  <path d="M498 470C562 520 640 520 704 470" stroke="#FFFFFF" stroke-width="14" stroke-linecap="round"/>
  <path d="M402 308L468 308" stroke="#69B6D4" stroke-width="10" stroke-linecap="round"/>
  <path d="M730 308L796 308" stroke="#5E2B83" stroke-width="10" stroke-linecap="round"/>
  <circle cx="190" cy="190" r="112" fill="url(#halo1)"/>
  <circle cx="1018" cy="640" r="172" fill="url(#halo2)"/>
  <defs>
    <linearGradient id="bg" x1="96" y1="98" x2="1092" y2="724" gradientUnits="userSpaceOnUse">
      <stop stop-color="#EFFBFF"/>
      <stop offset="0.53" stop-color="#F6F1FD"/>
      <stop offset="1" stop-color="#EAF8FF"/>
    </linearGradient>
    <radialGradient id="halo1" cx="0" cy="0" r="1" gradientUnits="userSpaceOnUse" gradientTransform="translate(190 190) rotate(90) scale(112)">
      <stop stop-color="#69B6D4" stop-opacity="0.44"/>
      <stop offset="1" stop-color="#69B6D4" stop-opacity="0"/>
    </radialGradient>
    <radialGradient id="halo2" cx="0" cy="0" r="1" gradientUnits="userSpaceOnUse" gradientTransform="translate(1018 640) rotate(90) scale(172)">
      <stop stop-color="#5E2B83" stop-opacity="0.48"/>
      <stop offset="1" stop-color="#5E2B83" stop-opacity="0"/>
    </radialGradient>
  </defs>
</svg>
